<svg xmlns="http://www.w3.org/2000/svg" xmlns:xlink="http://www.w3.org/1999/xlink" viewBox="0,0,256,256" width="48px" height="48px" fill-rule="nonzero"><g fill="#1877f2" fill-rule="nonzero" stroke="none" stroke-width="1" stroke-linecap="butt" stroke-linejoin="miter" stroke-miterlimit="10" stroke-dasharray="" stroke-dashoffset="0" font-family="none" font-weight="none" font-size="none" text-anchor="none" style="mix-blend-mode: normal"><g transform="scale(10.66667,10.66667)"><path d="M12,0c-1.10547,0 -2,0.89453 -2,2c0,0.04297 -0.00391,0.08203 0,0.125c-2.32422,0.30469 -4,1.29688 -4,3.90625c0,9.91406 -5,8.00391 -5,13.96875c0,0 4.00781,1 11,1c6.99219,0 11,-1 11,-1c0,-5.92969 -5,-3.99609 -5,-13.96875c0,-2.63281 -1.65625,-3.60937 -4,-3.90625c0.00391,-0.04297 0,-0.08203 0,-0.125c0,-1.10547 -0.89453,-2 -2,-2zM9.15625,21.9375c0.39453,1.19141 1.51953,2.0625 2.84375,2.0625c1.32422,0 2.44922,-0.87109 2.84375,-2.0625c-0.88281,0.03516 -1.83594,0.0625 -2.84375,0.0625c-1.01172,0 -1.95703,-0.02734 -2.84375,-0.0625z"></path></g></g></svg>